<?xml version="1.0" encoding="UTF-8"?>
<svg xmlns="http://www.w3.org/2000/svg" xmlns:xlink="http://www.w3.org/1999/xlink" width="100px" height="92px" viewBox="0 0 100 92" version="1.1">
<defs>
<filter id="alpha" filterUnits="objectBoundingBox" x="0%" y="0%" width="100%" height="100%">
  <feColorMatrix type="matrix" in="SourceGraphic" values="0 0 0 0 1 0 0 0 0 1 0 0 0 0 1 0 0 0 1 0"/>
</filter>
<mask id="mask0">
  <g filter="url(#alpha)">
<rect x="0" y="0" width="100" height="92" style="fill:rgb(0%,0%,0%);fill-opacity:0.301961;stroke:none;"/>
  </g>
</mask>
<clipPath id="clip1">
  <rect x="0" y="0" width="100" height="92"/>
</clipPath>
<g id="surface5" clip-path="url(#clip1)">
<path style=" stroke:none;fill-rule:nonzero;fill:rgb(94.117647%,94.117647%,94.117647%);fill-opacity:1;" d="M 66.03125 34.765625 L 72.992188 14.402344 L 65.347656 34.519531 C 65.242188 34.652344 65.234375 34.835938 65.328125 34.972656 C 65.421875 35.113281 65.597656 35.175781 65.757812 35.125 C 65.917969 35.078125 66.027344 34.933594 66.03125 34.765625 Z M 66.03125 34.765625 "/>
</g>
</defs>
<g id="surface1">
<path style=" stroke:none;fill-rule:nonzero;fill:rgb(90.196078%,90.196078%,90.196078%);fill-opacity:1;" d="M 64.3125 73.488281 L 65.277344 75.65625 C 64.492188 75.53125 63.761719 76.199219 63.746094 77.0625 C 63.730469 77.921875 64.429688 78.820312 65.214844 78.941406 C 65.0625 79.609375 64.417969 79.90625 63.855469 80.175781 C 63.292969 80.445312 62.6875 80.894531 62.730469 81.605469 C 62.765625 82.175781 63.238281 82.683594 63.738281 82.886719 C 64.238281 83.089844 64.765625 83.058594 65.273438 83.023438 C 64.503906 83.828125 64.429688 85.34375 65.105469 86.433594 C 65.78125 87.519531 67.132812 88.054688 68.144531 87.636719 C 67.429688 88.527344 67.582031 90.15625 68.46875 91.074219 C 69.363281 92 70.660156 92.089844 71.792969 91.992188 C 74.675781 91.75 77.421875 90.65625 79.691406 88.859375 C 80.554688 88.167969 81.363281 87.359375 81.859375 86.300781 C 82.351562 85.246094 82.496094 83.910156 82.039062 82.707031 C 82.160156 84.210938 83.667969 85.402344 85.019531 85.46875 C 86.375 85.535156 87.558594 84.769531 88.5625 83.898438 C 89.898438 82.742188 91.136719 81.117188 90.953125 79.113281 C 90.863281 78.121094 90.429688 77.167969 90.003906 76.246094 L 89.183594 74.453125 C 88.851562 73.730469 88.511719 72.996094 88.011719 72.386719 C 87.511719 71.78125 86.816406 71.3125 86.125 71.316406 C 86.28125 70.589844 86.441406 69.835938 86.308594 69.066406 C 86.175781 68.292969 85.664062 67.496094 84.972656 67.3125 C 84.089844 67.082031 83.34375 67.898438 82.457031 67.820312 C 81.605469 67.746094 80.898438 66.890625 80.070312 66.550781 C 79.375 66.25 78.5625 66.390625 78.007812 66.90625 C 77.484375 67.421875 77.265625 68.289062 77.453125 69.109375 C 77.617188 69.828125 78.058594 70.460938 78.324219 71.15625 C 78.589844 71.847656 78.632812 72.742188 78.121094 73.121094 C 77.5 73.578125 76.5625 72.953125 76.078125 72.203125 C 75.59375 71.449219 75.316406 70.539062 74.707031 69.90625 C 73.988281 69.160156 72.859375 68.984375 72.117188 69.503906 C 71.375 70.023438 71.089844 71.1875 71.464844 72.179688 C 71.769531 72.988281 72.472656 73.804688 72.226562 74.566406 C 71.972656 75.371094 70.847656 75.269531 70.167969 74.703125 C 69.492188 74.132812 69.042969 73.277344 68.371094 72.695312 C 67.691406 72.101562 66.804688 71.84375 66.023438 72.007812 C 65.21875 72.195312 64.566406 72.78125 64.292969 73.558594 "/>
<path style=" stroke:none;fill-rule:nonzero;fill:rgb(24.705882%,23.921569%,33.72549%);fill-opacity:1;" d="M 79.929688 67.402344 L 77.925781 68.335938 C 77.625 68.484375 77.285156 68.53125 76.957031 68.464844 C 76.664062 68.398438 76.46875 68.21875 76.417969 67.976562 L 75.953125 65.800781 C 75.863281 65.390625 76.203125 64.902344 76.757812 64.644531 L 77.863281 64.128906 C 78.421875 63.871094 79.011719 63.925781 79.269531 64.257812 L 80.628906 66.019531 C 80.78125 66.214844 80.789062 66.476562 80.65625 66.746094 C 80.492188 67.039062 80.234375 67.269531 79.929688 67.402344 Z M 79.929688 67.402344 "/>
<path style=" stroke:none;fill-rule:nonzero;fill:rgb(18.823529%,18.431373%,58.823529%);fill-opacity:1;" d="M 14.394531 29.238281 C 16.273438 24.082031 19.210938 19.375 23.011719 15.421875 C 26.238281 12.066406 31.261719 12.207031 31.261719 12.207031 L 31.289062 12.171875 C 33.761719 9.121094 37.820312 7.851562 41.585938 8.949219 C 42.0625 9.089844 42.433594 9.148438 42.609375 9.089844 C 45.800781 7.96875 45.652344 5.441406 48.40625 3.410156 C 53.230469 -0.152344 69.230469 3.925781 71.484375 10.484375 C 73.316406 15.796875 81.476562 18.371094 84.527344 22.4375 C 85.003906 23.070312 85.472656 23.714844 85.929688 24.363281 C 86.144531 24.667969 86.359375 24.972656 86.570312 25.277344 C 88.730469 28.410156 90.667969 31.691406 92.371094 35.097656 C 93.484375 37.320312 94.453125 39.617188 95.273438 41.964844 C 98.453125 51.277344 97.367188 58.210938 88.597656 56.5 C 87.558594 56.296875 86.546875 56.113281 85.558594 55.953125 C 84.125 55.71875 82.746094 55.527344 81.414062 55.375 C 79.621094 55.171875 77.914062 55.039062 76.296875 54.976562 C 75.753906 54.953125 75.21875 54.9375 74.695312 54.929688 C 66.945312 54.824219 61.195312 56.285156 56.816406 58.550781 C 56.074219 58.933594 55.371094 59.339844 54.707031 59.765625 C 53.691406 60.417969 52.722656 61.136719 51.804688 61.917969 C 50.539062 63.007812 49.367188 64.210938 48.3125 65.503906 L 48.253906 65.578125 C 43.128906 71.851562 41.445312 78.796875 37.882812 80.019531 C 22.652344 85.246094 13.019531 66.292969 12.03125 47.753906 C 11.980469 46.820312 11.953125 45.886719 11.949219 44.960938 C 11.945312 44.542969 11.945312 44.128906 11.953125 43.71875 C 11.96875 42.640625 12.015625 41.570312 12.097656 40.511719 C 12.125 40.105469 12.160156 39.707031 12.199219 39.304688 C 12.242188 38.875 12.289062 38.445312 12.34375 38.019531 C 12.730469 34.894531 13.410156 31.921875 14.394531 29.238281 Z M 14.394531 29.238281 "/>
<path style=" stroke:none;fill-rule:nonzero;fill:rgb(24.705882%,23.921569%,33.72549%);fill-opacity:1;" d="M 65.078125 37.351562 C 63.859375 37.917969 63.839844 40.457031 64.222656 41.28125 L 64.914062 42.769531 L 69.320312 40.71875 L 68.628906 39.230469 C 68.246094 38.40625 66.292969 36.785156 65.078125 37.351562 Z M 65.078125 37.351562 "/>
<path style=" stroke:none;fill-rule:nonzero;fill:rgb(24.705882%,23.921569%,33.72549%);fill-opacity:1;" d="M 53.238281 58.738281 C 53.078125 58.738281 52.933594 58.660156 52.84375 58.53125 C 52.753906 58.402344 52.730469 58.238281 52.785156 58.089844 C 52.828125 57.96875 52.917969 57.871094 53.035156 57.816406 L 75.789062 47.230469 C 76.027344 47.121094 76.316406 47.222656 76.425781 47.464844 C 76.539062 47.707031 76.433594 47.996094 76.195312 48.105469 L 76.191406 48.105469 L 53.441406 58.691406 C 53.375 58.722656 53.308594 58.738281 53.238281 58.738281 Z M 53.238281 58.738281 "/>
<path style=" stroke:none;fill-rule:nonzero;fill:rgb(90.196078%,90.196078%,90.196078%);fill-opacity:1;" d="M 64.53125 44.695312 L 71.035156 41.671875 L 81.238281 63.660156 L 74.734375 66.683594 Z M 64.53125 44.695312 "/>
<path style=" stroke:none;fill-rule:nonzero;fill:rgb(24.705882%,23.921569%,33.72549%);fill-opacity:1;" d="M 46.621094 13.992188 C 45.402344 14.558594 45.382812 17.097656 45.765625 17.921875 L 46.457031 19.410156 L 50.863281 17.359375 L 50.171875 15.871094 C 49.789062 15.050781 47.835938 13.425781 46.621094 13.992188 Z M 46.621094 13.992188 "/>
<path style=" stroke:none;fill-rule:nonzero;fill:rgb(24.705882%,23.921569%,33.72549%);fill-opacity:1;" d="M 73.875 69.929688 L 71.871094 70.863281 C 71.570312 71.011719 71.230469 71.058594 70.902344 70.992188 C 70.609375 70.925781 70.414062 70.746094 70.363281 70.503906 L 69.898438 68.328125 C 69.808594 67.917969 70.148438 67.429688 70.703125 67.171875 L 71.808594 66.65625 C 72.367188 66.398438 72.957031 66.453125 73.214844 66.785156 L 74.574219 68.546875 C 74.726562 68.742188 74.734375 69.007812 74.601562 69.273438 C 74.4375 69.566406 74.183594 69.796875 73.875 69.929688 Z M 73.875 69.929688 "/>
<path style=" stroke:none;fill-rule:nonzero;fill:rgb(24.705882%,23.921569%,33.72549%);fill-opacity:1;" d="M 67.722656 72.988281 L 65.71875 73.917969 C 65.417969 74.070312 65.078125 74.113281 64.746094 74.050781 C 64.457031 73.980469 64.261719 73.804688 64.210938 73.5625 L 63.742188 71.382812 C 63.65625 70.972656 63.996094 70.488281 64.550781 70.230469 L 65.65625 69.714844 C 66.214844 69.457031 66.804688 69.507812 67.058594 69.839844 L 68.421875 71.601562 C 68.574219 71.796875 68.582031 72.0625 68.449219 72.328125 C 68.285156 72.621094 68.027344 72.855469 67.722656 72.988281 Z M 67.722656 72.988281 "/>
<path style=" stroke:none;fill-rule:nonzero;fill:rgb(90.196078%,90.196078%,90.196078%);fill-opacity:1;" d="M 47.808594 25.078125 L 54.3125 22.050781 L 74.9375 66.496094 L 68.433594 69.523438 Z M 47.808594 25.078125 "/>
<path style=" stroke:none;fill-rule:nonzero;fill:rgb(24.705882%,23.921569%,33.72549%);fill-opacity:1;" d="M 61.0625 44.964844 L 60.332031 43.355469 L 60.753906 43.160156 L 61.480469 44.765625 L 72.015625 68.15625 L 71.597656 68.351562 "/>
<path style=" stroke:none;fill-rule:nonzero;fill:rgb(24.705882%,23.921569%,33.72549%);fill-opacity:1;" d="M 69.292969 43.625 L 68.5625 42.019531 L 68.984375 41.824219 L 69.710938 43.425781 L 80.246094 66.816406 L 79.828125 67.011719 "/>
<path style=" stroke:none;fill-rule:nonzero;fill:rgb(90.196078%,90.196078%,90.196078%);fill-opacity:1;" d="M 57.382812 25.609375 L 48.570312 29.707031 C 48.011719 28.835938 46.320312 24.355469 46.699219 23.027344 L 46.414062 21.757812 L 52.5 18.929688 L 53.3125 19.929688 C 54.523438 20.304688 56.875 24.507812 57.382812 25.609375 Z M 57.382812 25.609375 "/>
<path style=" stroke:none;fill-rule:nonzero;fill:rgb(90.196078%,90.196078%,90.196078%);fill-opacity:1;" d="M 52.753906 18.980469 L 46.472656 21.902344 C 46.242188 22.011719 45.996094 21.972656 45.921875 21.816406 C 45.910156 21.792969 45.90625 21.769531 45.902344 21.742188 L 45.578125 18.273438 C 45.5625 18.125 45.691406 17.953125 45.886719 17.863281 L 50.050781 15.925781 C 50.242188 15.835938 50.453125 15.847656 50.558594 15.953125 L 53 18.441406 C 53.125 18.570312 53.054688 18.789062 52.847656 18.929688 C 52.816406 18.949219 52.785156 18.96875 52.753906 18.980469 Z M 52.753906 18.980469 "/>
<path style=" stroke:none;fill-rule:nonzero;fill:rgb(24.705882%,23.921569%,33.72549%);fill-opacity:1;" d="M 57.675781 46.179688 C 57.609375 46.179688 57.542969 46.171875 57.476562 46.15625 C 57.289062 46.117188 57.128906 45.992188 57.042969 45.820312 L 53.203125 37.546875 C 53.042969 37.203125 53.257812 36.765625 53.679688 36.570312 L 59.300781 33.953125 C 59.722656 33.757812 60.191406 33.878906 60.351562 34.21875 L 64.191406 42.492188 C 64.269531 42.671875 64.261719 42.871094 64.167969 43.042969 C 64.070312 43.230469 63.910156 43.382812 63.714844 43.46875 L 58.09375 46.085938 C 57.964844 46.148438 57.820312 46.179688 57.675781 46.179688 Z M 57.675781 46.179688 "/>
<path style=" stroke:none;fill-rule:nonzero;fill:rgb(90.196078%,90.196078%,90.196078%);fill-opacity:1;" d="M 51.941406 50.457031 L 58.445312 47.433594 L 68.648438 69.421875 L 62.144531 72.445312 Z M 51.941406 50.457031 "/>
<path style=" stroke:none;fill-rule:nonzero;fill:rgb(24.705882%,23.921569%,33.72549%);fill-opacity:1;" d="M 50.433594 19.34375 L 48.527344 20.230469 C 48.160156 20.402344 47.660156 20.117188 47.417969 19.597656 C 47.175781 19.074219 47.28125 18.511719 47.648438 18.339844 L 49.554688 17.453125 C 49.921875 17.28125 50.417969 17.566406 50.660156 18.089844 C 50.902344 18.609375 50.800781 19.171875 50.433594 19.34375 Z M 50.433594 19.34375 "/>
<path style=" stroke:none;fill-rule:nonzero;fill:rgb(24.705882%,23.921569%,33.72549%);fill-opacity:1;" d="M 52.613281 43.054688 C 51.398438 43.621094 51.378906 46.160156 51.761719 46.984375 L 52.449219 48.472656 L 56.855469 46.421875 L 56.164062 44.933594 C 55.785156 44.109375 53.832031 42.488281 52.613281 43.054688 Z M 52.613281 43.054688 "/>
<path style=" stroke:none;fill-rule:nonzero;fill:rgb(90.196078%,90.196078%,90.196078%);fill-opacity:1;" d="M 32.410156 37.984375 C 31.980469 38.269531 31.539062 37.589844 31.976562 37.3125 C 32.40625 37.027344 32.847656 37.710938 32.410156 37.984375 Z M 32.410156 37.984375 "/>
<path style=" stroke:none;fill-rule:nonzero;fill:rgb(90.196078%,90.196078%,90.196078%);fill-opacity:1;" d="M 77.125 28.183594 C 76.695312 28.46875 76.257812 27.785156 76.695312 27.511719 C 77.125 27.226562 77.5625 27.910156 77.125 28.183594 Z M 77.125 28.183594 "/>
<path style=" stroke:none;fill-rule:nonzero;fill:rgb(90.196078%,90.196078%,90.196078%);fill-opacity:1;" d="M 46.648438 35.980469 C 46.21875 36.265625 45.777344 35.582031 46.214844 35.308594 C 46.644531 35.023438 47.085938 35.703125 46.648438 35.980469 Z M 46.648438 35.980469 "/>
<path style=" stroke:none;fill-rule:nonzero;fill:rgb(90.196078%,90.196078%,90.196078%);fill-opacity:1;" d="M 32.410156 62.710938 C 31.980469 62.996094 31.539062 62.316406 31.976562 62.039062 C 32.40625 61.753906 32.847656 62.4375 32.410156 62.710938 Z M 32.410156 62.710938 "/>
<path style=" stroke:none;fill-rule:nonzero;fill:rgb(90.196078%,90.196078%,90.196078%);fill-opacity:1;" d="M 54.324219 6.910156 C 53.894531 7.195312 53.453125 6.511719 53.890625 6.238281 C 54.320312 5.953125 54.761719 6.636719 54.324219 6.910156 Z M 54.324219 6.910156 "/>
<path style=" stroke:none;fill-rule:nonzero;fill:rgb(90.196078%,90.196078%,90.196078%);fill-opacity:1;" d="M 33.1875 20.050781 C 32.757812 20.339844 32.320312 19.65625 32.757812 19.382812 C 33.1875 19.09375 33.625 19.777344 33.1875 20.050781 Z M 33.1875 20.050781 "/>
<path style=" stroke:none;fill-rule:nonzero;fill:rgb(90.196078%,90.196078%,90.196078%);fill-opacity:1;" d="M 63.585938 16.285156 L 63.3125 16.222656 L 63.371094 15.949219 L 63.191406 15.910156 L 63.128906 16.183594 L 62.855469 16.125 L 62.816406 16.304688 L 63.089844 16.367188 L 63.03125 16.640625 L 63.214844 16.679688 L 63.273438 16.40625 L 63.546875 16.464844 Z M 63.585938 16.285156 "/>
<path style=" stroke:none;fill-rule:nonzero;fill:rgb(90.196078%,90.196078%,90.196078%);fill-opacity:1;" d="M 19.082031 39.09375 L 18.808594 39.03125 L 18.867188 38.757812 L 18.6875 38.71875 L 18.625 38.992188 L 18.351562 38.933594 L 18.3125 39.113281 L 18.585938 39.175781 L 18.527344 39.449219 L 18.707031 39.488281 L 18.769531 39.214844 L 19.042969 39.273438 Z M 19.082031 39.09375 "/>
<path style=" stroke:none;fill-rule:nonzero;fill:rgb(24.705882%,23.921569%,33.72549%);fill-opacity:1;" d="M 75.132812 50.726562 C 74.65625 50.945312 74.097656 50.742188 73.875 50.265625 L 72.75 47.84375 C 72.53125 47.367188 72.738281 46.804688 73.210938 46.585938 C 73.683594 46.367188 74.246094 46.570312 74.464844 47.042969 L 75.589844 49.46875 C 75.808594 49.941406 75.605469 50.503906 75.132812 50.726562 Z M 75.132812 50.726562 "/>
<path style=" stroke:none;fill-rule:nonzero;fill:rgb(24.705882%,23.921569%,33.72549%);fill-opacity:1;" d="M 56 59.636719 C 55.523438 59.855469 54.964844 59.652344 54.742188 59.175781 L 53.617188 56.753906 C 53.398438 56.277344 53.605469 55.714844 54.078125 55.496094 C 54.550781 55.277344 55.113281 55.480469 55.332031 55.957031 L 56.457031 58.378906 C 56.675781 58.855469 56.472656 59.417969 56 59.636719 Z M 56 59.636719 "/>
<path style=" stroke:none;fill-rule:nonzero;fill:rgb(90.196078%,90.196078%,90.196078%);fill-opacity:1;" d="M 73.398438 45.429688 L 65.855469 48.9375 C 65.375 48.191406 63.929688 44.355469 64.253906 43.21875 L 64.414062 41.949219 L 68.917969 39.734375 L 69.914062 40.570312 C 71.320312 40.09375 73.386719 43.582031 73.398438 45.429688 Z M 73.398438 45.429688 "/>
<path style=" stroke:none;fill-rule:nonzero;fill:rgb(24.705882%,23.921569%,33.72549%);fill-opacity:1;" d="M 69.898438 45.1875 L 67.988281 46.074219 C 67.621094 46.246094 67.0625 45.824219 66.742188 45.132812 C 66.421875 44.441406 66.460938 43.742188 66.828125 43.570312 L 68.734375 42.683594 C 69.101562 42.511719 69.664062 42.933594 69.984375 43.625 C 70.304688 44.316406 70.265625 45.015625 69.898438 45.1875 Z M 69.898438 45.1875 "/>
<path style=" stroke:none;fill-rule:nonzero;fill:rgb(24.705882%,23.921569%,33.72549%);fill-opacity:1;" d="M 53.722656 49.753906 L 52.992188 48.144531 L 53.410156 47.949219 L 54.140625 49.554688 L 64.675781 72.945312 L 64.253906 73.140625 "/>
<path style=" stroke:none;fill-rule:nonzero;fill:rgb(90.196078%,90.196078%,90.196078%);fill-opacity:1;" d="M 60.9375 51.132812 L 53.394531 54.640625 C 52.28125 54.066406 50.582031 50.300781 51.792969 48.921875 L 51.949219 47.652344 L 56.453125 45.4375 L 57.453125 46.273438 C 58.488281 46.59375 60.5 50.191406 60.9375 51.132812 Z M 60.9375 51.132812 "/>
<path style=" stroke:none;fill-rule:nonzero;fill:rgb(24.705882%,23.921569%,33.72549%);fill-opacity:1;" d="M 57.28125 50.554688 L 55.371094 51.441406 C 55.003906 51.613281 54.480469 51.265625 54.203125 50.667969 C 53.925781 50.070312 53.996094 49.445312 54.367188 49.273438 L 56.273438 48.386719 C 56.640625 48.214844 57.167969 48.5625 57.445312 49.160156 C 57.722656 49.757812 57.648438 50.382812 57.28125 50.554688 Z M 57.28125 50.554688 "/>
<path style=" stroke:none;fill-rule:nonzero;fill:rgb(100%,39.607843%,51.764706%);fill-opacity:1;" d="M 30.511719 22.816406 C 30.511719 29.152344 25.382812 34.289062 19.054688 34.289062 C 12.726562 34.289062 7.597656 29.152344 7.597656 22.816406 C 7.597656 16.480469 12.726562 11.34375 19.054688 11.34375 C 25.382812 11.34375 30.511719 16.480469 30.511719 22.816406 Z M 30.511719 22.816406 "/>
<use xlink:href="#surface5" mask="url(#mask0)"/>
<path style=" stroke:none;fill-rule:nonzero;fill:rgb(24.705882%,23.921569%,33.72549%);fill-opacity:1;" d="M 83.777344 22.628906 C 82.414062 23.082031 80.902344 23.527344 79.246094 23.964844 C 70.664062 26.226562 59.160156 27.992188 46.855469 28.933594 C 34.550781 29.875 22.914062 29.882812 14.089844 28.953125 C 9.792969 28.5 6.390625 27.847656 3.984375 27.015625 C 1.4375 26.136719 0.0976562 25.074219 0.00390625 23.863281 C -0.175781 21.503906 4.476562 19.425781 8.414062 18.097656 L 8.519531 18.414062 C 3.117188 20.234375 0.210938 22.164062 0.335938 23.835938 C 0.5 25.972656 5.527344 27.714844 14.125 28.621094 C 22.929688 29.546875 34.546875 29.539062 46.832031 28.601562 C 59.117188 27.660156 70.597656 25.898438 79.160156 23.640625 C 87.519531 21.4375 92.222656 18.949219 92.0625 16.816406 C 91.925781 15.042969 88.4375 13.527344 82.242188 12.546875 L 82.292969 12.21875 C 86.796875 12.929688 92.203125 14.300781 92.394531 16.789062 C 92.488281 18 91.324219 19.253906 88.9375 20.511719 C 87.578125 21.230469 85.851562 21.9375 83.777344 22.628906 Z M 83.777344 22.628906 "/>
<path style=" stroke:none;fill-rule:nonzero;fill:rgb(100%,39.607843%,51.764706%);fill-opacity:1;" d="M 88.335938 41.78125 C 88.335938 42.441406 87.800781 42.976562 87.144531 42.976562 C 86.488281 42.976562 85.953125 42.441406 85.953125 41.78125 C 85.953125 41.125 86.488281 40.589844 87.144531 40.589844 C 87.800781 40.589844 88.335938 41.125 88.335938 41.78125 Z M 88.335938 41.78125 "/>
<path style=" stroke:none;fill-rule:nonzero;fill:rgb(94.901961%,94.901961%,94.901961%);fill-opacity:1;" d="M 95.898438 74.082031 C 95.898438 74.742188 95.367188 75.273438 94.707031 75.273438 C 94.050781 75.273438 93.515625 74.742188 93.515625 74.082031 C 93.515625 73.425781 94.050781 72.890625 94.707031 72.890625 C 95.367188 72.890625 95.898438 73.425781 95.898438 74.082031 Z M 95.898438 74.082031 "/>
<path style=" stroke:none;fill-rule:nonzero;fill:rgb(94.901961%,94.901961%,94.901961%);fill-opacity:1;" d="M 56.429688 80.207031 C 56.429688 81.492188 55.390625 82.53125 54.105469 82.53125 C 52.824219 82.53125 51.785156 81.492188 51.785156 80.207031 C 51.785156 78.925781 52.824219 77.886719 54.105469 77.886719 C 55.390625 77.886719 56.429688 78.925781 56.429688 80.207031 Z M 56.429688 80.207031 "/>
<path style=" stroke:none;fill-rule:nonzero;fill:rgb(24.705882%,23.921569%,33.72549%);fill-opacity:1;" d="M 37.613281 50.582031 C 37.613281 51.238281 37.078125 51.773438 36.421875 51.773438 C 35.761719 51.773438 35.230469 51.238281 35.230469 50.582031 C 35.230469 49.921875 35.761719 49.390625 36.421875 49.390625 C 37.078125 49.390625 37.613281 49.921875 37.613281 50.582031 Z M 37.613281 50.582031 "/>
<path style=" stroke:none;fill-rule:nonzero;fill:rgb(90.196078%,90.196078%,90.196078%);fill-opacity:1;" d="M 76.445312 53.324219 L 81.578125 54.65625 L 84.730469 60.851562 L 79.402344 61.0625 Z M 76.445312 53.324219 "/>
<path style=" stroke:none;fill-rule:nonzero;fill:rgb(80%,80%,80%);fill-opacity:1;" d="M 64.585938 44.394531 L 67.414062 47.226562 L 74.59375 62.769531 L 73.273438 63.914062 Z M 64.585938 44.394531 "/>
<path style=" stroke:none;fill-rule:nonzero;fill:rgb(80%,80%,80%);fill-opacity:1;" d="M 58.441406 46.960938 L 58.664062 50.957031 L 65.441406 66.683594 L 67.171875 66.460938 Z M 58.441406 46.960938 "/>
<path style=" stroke:none;fill-rule:nonzero;fill:rgb(90.196078%,90.196078%,90.196078%);fill-opacity:1;" d="M 58.257812 63.113281 L 55.488281 67.644531 L 57.527344 74.292969 L 61.5 70.734375 Z M 58.257812 63.113281 "/>
<path style=" stroke:none;fill-rule:nonzero;fill:rgb(24.705882%,23.921569%,33.72549%);fill-opacity:1;" d="M 82.691406 65.898438 C 81.257812 65.898438 79.683594 65.84375 77.96875 65.734375 C 69.113281 65.171875 57.644531 63.214844 45.667969 60.222656 C 33.695312 57.230469 22.652344 53.5625 14.570312 49.894531 C 10.632812 48.105469 7.613281 46.414062 5.589844 44.863281 C 3.449219 43.226562 2.511719 41.792969 2.804688 40.617188 C 3.378906 38.316406 8.449219 37.816406 12.601562 37.796875 L 12.601562 38.132812 C 6.902344 38.15625 3.535156 39.066406 3.128906 40.695312 C 2.613281 42.773438 6.832031 46.015625 14.707031 49.589844 C 22.773438 53.25 33.796875 56.910156 45.75 59.898438 C 57.703125 62.886719 69.15625 64.839844 77.992188 65.402344 C 86.621094 65.949219 91.867188 65.074219 92.382812 62.996094 C 92.8125 61.273438 89.980469 58.734375 84.410156 55.847656 L 84.5625 55.550781 C 88.613281 57.648438 93.3125 60.65625 92.707031 63.078125 C 92.414062 64.257812 90.917969 65.078125 88.257812 65.519531 C 86.742188 65.773438 84.878906 65.898438 82.691406 65.898438 Z M 82.691406 65.898438 "/>
</g>
</svg>
